<svg width="1512" height="982" viewBox="0 0 1512 982" fill="none" xmlns="http://www.w3.org/2000/svg">
<path d="M456.5 -22.5C388.167 66.8333 190 252.2 -56 279L-91.5 -101L900 -22.5C894 1.83334 868.2 48.9 813 42.5C757.8 36.1 735 -3.5 730.5 -22.5H456.5Z" fill="#D9D9D9"/>
<path d="M377.5 908C319.1 906.4 284.833 979.333 275 1016H1585.5C1594.17 876.167 1596.9 589 1538.5 559C1465.5 521.5 1457.5 738.5 1410.5 847C1363.5 955.5 1355 833 1256.5 813C1177.7 797 1122.67 932.667 1105 1002.5H651.5C584.5 971.667 435.9 909.6 377.5 908Z" fill="#D9D9D9"/>
</svg>
