<svg width="100" height="100" viewBox="0 0 100 100" fill="none" xmlns="http://www.w3.org/2000/svg">
<g clip-path="url(#clip0_4_785)">
<path fill-rule="evenodd" clip-rule="evenodd" d="M49.945 -0.172004C49.203 -0.176004 48.796 0.329996 48.682 0.921996L37.764 37.764C25.444 41.41 13.113 45.04 0.814 48.717C0.174 48.909 -0.174 49.291 -0.172 49.969C-0.17 50.646 0.425 51.051 0.977 51.221L37.727 62.109C41.387 74.472 45.027 86.845 48.717 99.186C48.909 99.826 49.291 100.174 49.969 100.172C50.646 100.17 51.051 99.575 51.221 99.023L62.146 62.148L99.061 51.211C99.795 50.972 100.168 50.687 100.171 49.945C100.176 49.203 99.67 48.796 99.078 48.682L62.111 37.727L51.211 0.938996C50.972 0.204996 50.687 -0.168004 49.945 -0.171004V-0.172004ZM50 42.5C51.9891 42.5 53.8968 43.2902 55.3033 44.6967C56.7098 46.1032 57.5 48.0109 57.5 50C57.5 51.9891 56.7098 53.8968 55.3033 55.3033C53.8968 56.7098 51.9891 57.5 50 57.5C48.0109 57.5 46.1032 56.7098 44.6967 55.3033C43.2902 53.8968 42.5 51.9891 42.5 50C42.5 48.0109 43.2902 46.1032 44.6967 44.6967C46.1032 43.2902 48.0109 42.5 50 42.5Z" fill="#F7F7F7"/>
<path fill-rule="evenodd" clip-rule="evenodd" d="M84.596 14.1C84.3003 14.1012 84.0121 14.1937 83.771 14.365L62.658 25.825C63.479 28.753 64.335 31.66 65.308 34.502L74.168 37.127L85.547 16.166C85.897 15.477 85.959 15.012 85.437 14.484C85.177 14.221 84.885 14.106 84.596 14.1ZM15.295 14.107C15.033 14.134 14.784 14.262 14.545 14.502C14.067 14.982 14.203 15.689 14.473 16.199L25.877 37.207C28.79 36.39 31.689 35.539 34.537 34.57L37.158 25.727C30.149 21.917 23.14 18.097 16.127 14.312C15.832 14.154 15.557 14.081 15.295 14.107ZM74.172 62.652C71.192 63.484 68.242 64.352 65.372 65.346C64.519 68.271 63.642 71.191 62.77 74.111L83.834 85.547C84.523 85.897 84.988 85.959 85.516 85.437C86.043 84.916 85.972 84.271 85.635 83.771L74.172 62.652ZM25.782 62.738C21.952 69.782 18.116 76.823 14.312 83.871C13.995 84.461 14.022 84.977 14.502 85.455C14.982 85.933 15.689 85.797 16.199 85.527L37.207 74.123C36.379 71.167 35.516 68.226 34.533 65.336C31.613 64.486 28.697 63.609 25.781 62.738H25.782Z" fill="#F7F7F7"/>
</g>
<defs>
<clipPath id="clip0_4_785">
<rect width="100" height="100" fill="white"/>
</clipPath>
</defs>
</svg>
